PathFileType  4	(X/Y/Z) C:\Users\antoi\Documents\MyRepositories\mobilecap\ResultsAnalysis
DataRate	CameraRate	NumFrames	NumMarkers	Units	OrigDataRate	OrigDataStartFrame	OrigNumFrames
100.0	100.0	6	55	mm	100.0	194	517
Frame#	Time	r_knee			r_shank_antsup			r_ankle			r_calc			r_5meta			r_toe			L_knee			L_shank_antsup			L_ankle			L_calc			L_5meta			L_toe			r_mknee			r_mankle			L_mknee			L_mankle			r_sh2			r_sh3			r_sh4			L_sh2			L_sh3			r_thigh1			r_thigh2			r_thigh3			r_thigh4			r_thigh5			L_thigh1			L_thigh2			L_thigh3			L_thigh4			r.ASIS			r.PSIS			L.ASIS			L.PSIS			C7			R_Shoulder			L_Shoulder			R_Sternum			L_Sternum			R_humerus			R_elbow_med			R_elbow_lat			R_forearm			R_wrist_radius			R_wrist_ulna			L_humerus			L_elbow_med			L_elbow_lat			L_forearm			L_wrist_radius			L_wrist_ulna			R_HJC			L_HJC			R_HJC_reg			L_HJC_reg			
		X1	Y1	Z1	X2	Y2	Z2	X3	Y3	Z3	X4	Y4	Z4	X5	Y5	Z5	X6	Y6	Z6	X7	Y7	Z7	X8	Y8	Z8	X9	Y9	Z9	X10	Y10	Z10	X11	Y11	Z11	X12	Y12	Z12	X13	Y13	Z13	X14	Y14	Z14	X15	Y15	Z15	X16	Y16	Z16	X17	Y17	Z17	X18	Y18	Z18	X19	Y19	Z19	X20	Y20	Z20	X21	Y21	Z21	X22	Y22	Z22	X23	Y23	Z23	X24	Y24	Z24	X25	Y25	Z25	X26	Y26	Z26	X27	Y27	Z27	X28	Y28	Z28	X29	Y29	Z29	X30	Y30	Z30	X31	Y31	Z31	X32	Y32	Z32	X33	Y33	Z33	X34	Y34	Z34	X35	Y35	Z35	X36	Y36	Z36	X37	Y37	Z37	X38	Y38	Z38	X39	Y39	Z39	X40	Y40	Z40	X41	Y41	Z41	X42	Y42	Z42	X43	Y43	Z43	X44	Y44	Z44	X45	Y45	Z45	X46	Y46	Z46	X47	Y47	Z47	X48	Y48	Z48	X49	Y49	Z49	X50	Y50	Z50	X51	Y51	Z51	X52	Y52	Z52	X53	Y53	Z53	X54	Y54	Z54	X55	Y55	Z55	

194	1.93000000	-218.82751	500.06353	-434.62740	-191.73886	409.54262	-437.94881	-283.82804	93.53712	-433.56058	-343.47704	57.76355	-478.14964	-162.69126	43.62395	-390.00830	-129.52626	70.31581	-446.27136	-219.87236	503.66736	-764.73605	-191.43538	420.78871	-758.63890	-274.94896	97.91927	-772.95195	-345.35778	50.03483	-725.45196	-167.73583	40.98747	-813.62810	-121.16651	64.93240	-756.92559	-233.62401	483.61481	-551.85536	-261.46145	110.86169	-509.79320	-230.54579	490.75553	-645.78050	-255.14965	103.75680	-691.78691	-204.40837	296.54170	-434.80998	-254.13283	416.15757	-394.93575	-272.21897	302.45406	-388.72719	-270.14859	443.88732	-801.15422	-285.19060	321.85216	-810.28759	-146.19637	779.53037	-430.34225	-147.81453	668.36732	-435.71867	-201.49368	642.54563	-403.76745	-256.70167	776.58720	-409.85973	-251.96246	660.82304	-418.82967	-129.10133	748.67144	-766.17768	-127.25101	608.81008	-749.84588	-231.94651	744.84810	-807.50976	-233.46677	612.73701	-779.38021	-110.96423	965.19085	-477.45700	-315.06071	1010.76961	-565.35882	-108.65896	963.71468	-733.41380	-311.28125	1010.74074	-658.98723	-281.97812	1463.09699	-610.26987	-219.56860	1431.89582	-440.58853	-192.34358	1435.71428	-760.02002	-155.09697	1392.85767	-578.09373	-155.24364	1395.66740	-623.42528	-179.33529	1301.30209	-390.11686	-266.08475	1098.93850	-423.45168	-249.43816	1110.52019	-357.95350	-187.70056	1049.86017	-343.52479	-129.22165	890.69250	-380.36510	-155.68289	889.28397	-337.65165	-160.26595	1294.92930	-815.72033	-245.03817	1097.80850	-783.60013	-210.72882	1109.13146	-855.38688	-156.04421	1054.34828	-855.97640	-104.76937	884.63000	-822.90776	-130.22187	886.02056	-868.62652	-200.94612	883.71441	-506.00131	-195.83008	883.25680	-695.49421	-190.85924	891.71069	-516.83930	-184.04517	891.65858	-685.64296	
195	1.94000000	-218.80770	500.06841	-434.61560	-191.74896	409.53497	-437.95425	-283.82950	93.54165	-433.56069	-343.48456	57.75322	-478.16351	-162.69473	43.62517	-390.01351	-129.55278	70.31688	-446.31227	-219.86498	503.65860	-764.74433	-191.43407	420.78534	-758.63755	-274.94708	97.90227	-772.93715	-345.33310	50.01766	-725.42297	-167.75077	40.96441	-813.60751	-121.18807	64.93989	-756.96029	-233.62912	483.61372	-551.85097	-261.46241	110.86099	-509.79344	-230.54589	490.74353	-645.78086	-255.19137	103.75489	-691.77194	-204.40553	296.54929	-434.83737	-254.13972	416.16689	-394.96903	-272.40596	302.23352	-388.64596	-270.14626	443.88259	-801.15987	-285.18685	321.87341	-810.30139	-146.22317	779.51812	-430.35820	-147.80816	668.37279	-435.70501	-201.46921	642.58269	-403.76489	-256.69330	776.63361	-409.84244	-251.97540	660.91534	-418.83880	-129.11730	748.68640	-766.18474	-127.25695	608.81842	-749.87316	-231.94540	744.83866	-807.50319	-233.47866	612.68705	-779.40777	-110.95386	965.17559	-477.45151	-315.03826	1010.83949	-565.37106	-108.63160	963.72675	-733.50028	-311.26835	1010.73567	-658.99251	-281.89989	1463.10493	-610.19186	-219.55187	1431.87959	-440.58158	-192.28722	1435.68817	-760.00815	-155.06427	1392.82003	-578.10041	-155.20371	1395.63130	-623.43282	-179.29717	1301.25922	-390.12739	-266.07107	1098.93145	-423.46562	-249.40843	1110.49310	-357.99247	-187.68204	1049.82984	-343.57203	-129.20369	890.64825	-380.46702	-155.68960	889.23709	-337.66923	-160.21296	1294.89028	-815.71154	-245.00631	1097.79140	-783.61034	-210.70171	1109.10238	-855.38509	-156.01383	1054.31913	-855.98848	-104.73138	884.59929	-822.93748	-130.16347	885.94856	-868.59412	-200.93838	883.72533	-506.02940	-195.83350	883.27210	-695.52262	-190.89407	891.81057	-516.78576	-184.09423	891.62330	-685.65062	
196	1.95000000	-218.80142	500.08867	-434.61968	-191.77782	409.51592	-438.01198	-283.79705	93.52812	-433.56541	-343.48323	57.74681	-478.20074	-162.70507	43.66393	-390.00685	-129.56075	70.31553	-446.32508	-219.85261	503.64255	-764.73177	-191.42304	420.79264	-758.61656	-274.95333	97.89867	-772.92791	-345.32523	50.01910	-725.41132	-167.74657	40.97152	-813.60391	-121.18897	64.96580	-756.96337	-233.62970	483.61477	-551.85458	-261.45973	110.86350	-509.78787	-230.54284	490.74357	-645.78223	-255.22719	103.75167	-691.76618	-204.41522	296.53811	-434.82977	-254.16707	416.10557	-394.99134	-272.48824	302.16515	-388.63050	-270.14023	443.88375	-801.16239	-285.15743	321.93945	-810.35440	-146.21947	779.51698	-430.36033	-147.81046	668.37534	-435.72115	-201.48366	642.60510	-403.77496	-256.69508	776.62914	-409.83609	-251.96314	660.98476	-418.82088	-129.09909	748.66650	-766.17917	-127.24852	608.81064	-749.84987	-231.93933	744.84558	-807.50625	-233.47308	612.69332	-779.41215	-110.95496	965.17535	-477.43018	-314.95626	1010.88681	-565.37465	-108.63753	963.70814	-733.43928	-311.26111	1010.74935	-658.99629	-281.83009	1463.10508	-610.13577	-219.53067	1431.85349	-440.57152	-192.23304	1435.66744	-759.98778	-155.05129	1392.76082	-578.12030	-155.16114	1395.63486	-623.39670	-179.29440	1301.22145	-390.12856	-266.05143	1098.88168	-423.46843	-249.36962	1110.43613	-358.07775	-187.66815	1049.76812	-343.65098	-129.18492	890.57834	-380.57739	-155.67691	889.18418	-337.71091	-160.17359	1294.87683	-815.73860	-244.96388	1097.78020	-783.65266	-210.66866	1109.07773	-855.39393	-155.97729	1054.27881	-856.02211	-104.68752	884.56259	-822.93815	-130.11517	885.91010	-868.54336	-200.94833	883.74766	-505.99562	-195.83383	883.26674	-695.48851	-190.85249	891.88242	-516.66804	-184.18831	891.63457	-685.51205	
197	1.96000000	-218.80699	500.10642	-434.62396	-191.78599	409.51706	-438.00989	-283.77044	93.48446	-433.57968	-343.46986	57.73847	-478.23148	-162.69941	43.72183	-389.98707	-129.54017	70.32047	-446.33559	-219.84300	503.63434	-764.70819	-191.42356	420.79291	-758.62760	-274.96217	97.91110	-772.93518	-345.35029	50.03165	-725.43370	-167.72455	41.00852	-813.61751	-121.15763	64.97912	-756.92726	-233.63118	483.61562	-551.85918	-261.45610	110.87481	-509.78144	-230.53766	490.75432	-645.78327	-255.20323	103.75124	-691.77674	-204.41379	296.55436	-434.81471	-254.18030	416.05365	-394.99562	-272.12666	302.43568	-388.79786	-270.13443	443.88895	-801.16118	-285.15087	321.97201	-810.36558	-146.20896	779.51528	-430.36076	-147.82288	668.36643	-435.73656	-201.54183	642.58290	-403.81968	-256.70509	776.56448	-409.90696	-251.94870	660.99979	-418.78473	-129.06635	748.62789	-766.16688	-127.23132	608.80098	-749.81303	-231.93045	744.85471	-807.51606	-233.46291	612.71611	-779.39784	-110.96031	965.17953	-477.41218	-314.90808	1010.89142	-565.35614	-108.62205	963.70218	-733.40279	-311.25638	1010.77046	-658.99206	-281.78602	1463.10284	-610.12032	-219.49186	1431.81874	-440.56533	-192.18994	1435.62789	-759.95336	-155.03460	1392.71456	-578.12180	-155.09943	1395.65625	-623.33357	-179.28429	1301.16918	-390.16690	-266.05333	1098.81984	-423.47223	-249.34553	1110.32618	-358.23377	-187.67685	1049.68571	-343.73290	-129.16755	890.51554	-380.65577	-155.67155	889.11725	-337.77690	-160.12483	1294.85189	-815.76641	-244.94117	1097.77495	-783.68754	-210.63059	1109.06235	-855.40083	-155.95344	1054.22903	-856.02866	-104.64351	884.51013	-822.87895	-130.11066	885.86853	-868.52245	-200.94656	883.75483	-505.97368	-195.82291	883.26960	-695.46632	-190.80199	891.87214	-516.62143	-184.21757	891.65405	-685.45658	
198	1.97000000	-218.83055	500.09774	-434.63631	-191.78041	409.53206	-437.94444	-283.77204	93.47423	-433.58064	-343.46628	57.71878	-478.22721	-162.68469	43.68415	-389.98676	-129.51840	70.33676	-446.32842	-219.83417	503.64013	-764.70156	-191.43243	420.78886	-758.65744	-274.96429	97.92861	-772.93581	-345.39324	50.02965	-725.43514	-167.70697	41.04753	-813.63147	-121.13041	64.96936	-756.87947	-233.63338	483.61479	-551.85940	-261.45332	110.89441	-509.77769	-230.53841	490.75765	-645.78551	-255.15803	103.75509	-691.78391	-204.43273	296.58363	-434.81432	-254.16069	416.05222	-395.04132	-271.81488	302.69689	-388.90995	-270.13256	443.89829	-801.15629	-285.16285	321.94460	-810.32543	-146.20397	779.51070	-430.36508	-147.82576	668.36374	-435.72181	-201.57858	642.57110	-403.87674	-256.70726	776.51883	-409.98267	-251.96692	660.99271	-418.77471	-129.03470	748.60455	-766.15769	-127.21610	608.81323	-749.79603	-231.91511	744.85206	-807.51900	-233.45588	612.71907	-779.39769	-110.95706	965.16648	-477.41028	-314.90321	1010.87764	-565.30859	-108.56910	963.71927	-733.49977	-311.24509	1010.78388	-658.98541	-281.75036	1463.09345	-610.09729	-219.45265	1431.76291	-440.55350	-192.15191	1435.57012	-759.90032	-154.98309	1392.67748	-578.12349	-155.05232	1395.66391	-623.29432	-179.25081	1301.10248	-390.22137	-266.07756	1098.79036	-423.49089	-249.33929	1110.20933	-358.39816	-187.67543	1049.61134	-343.81179	-129.15348	890.48620	-380.70221	-155.66991	889.04938	-337.86755	-160.06475	1294.80593	-815.75841	-244.92538	1097.73980	-783.66422	-210.58740	1109.04581	-855.39618	-155.92059	1054.16112	-855.96797	-104.59325	884.47313	-822.81419	-130.11997	885.80549	-868.49491	-200.91539	883.73565	-506.00554	-195.80850	883.28840	-695.49872	-190.78113	891.81071	-516.66155	-184.18551	891.64166	-685.56182	
199	1.98000000	-218.85607	500.07454	-434.65430	-191.78894	409.54433	-437.93360	-283.78868	93.51539	-433.56222	-343.46973	57.71616	-478.20603	-162.67367	43.58939	-389.99720	-129.52038	70.35590	-446.28588	-219.81582	503.63613	-764.69865	-191.43014	420.78836	-758.65631	-274.95731	97.93181	-772.90676	-345.43182	50.02257	-725.36384	-167.71259	41.06145	-813.63008	-121.14194	64.96316	-756.87015	-233.63423	483.61727	-551.85754	-261.45191	110.91487	-509.77614	-230.54472	490.75281	-645.78711	-255.14866	103.75854	-691.78382	-204.47097	296.58346	-434.82642	-254.15141	416.04919	-395.12801	-272.00794	302.63554	-388.81173	-270.13005	443.90851	-801.14919	-285.15638	321.92335	-810.30306	-146.20306	779.50990	-430.36669	-147.82641	668.35584	-435.72214	-201.55799	642.57658	-403.88335	-256.68299	776.52986	-409.96759	-251.99339	660.98168	-418.79483	-129.01315	748.59587	-766.15273	-127.20388	608.83174	-749.78294	-231.89228	744.84705	-807.51234	-233.44420	612.72214	-779.41248	-110.94287	965.14600	-477.41320	-314.90803	1010.86230	-565.28030	-108.52981	963.72572	-733.60024	-311.22851	1010.78951	-658.98451	-281.70539	1463.07574	-610.06222	-219.44295	1431.68972	-440.52930	-192.09478	1435.52817	-759.83985	-154.89947	1392.63418	-578.15395	-155.04096	1395.65636	-623.29560	-179.22769	1301.03935	-390.23963	-266.08813	1098.76241	-423.50404	-249.33942	1110.14967	-358.48012	-187.63705	1049.56035	-343.88709	-129.14639	890.47675	-380.73526	-155.65785	889.00141	-337.96687	-160.00041	1294.75031	-815.71780	-244.88349	1097.67677	-783.61462	-210.53658	1109.02348	-855.39315	-155.85379	1054.08466	-855.87019	-104.53470	884.46264	-822.78432	-130.09911	885.76572	-868.44897	-200.88684	883.71254	-506.04270	-195.79919	883.29737	-695.53648	-190.77808	891.74819	-516.71500	-184.14331	891.61695	-685.67824	
